<mxfile host="app.diagrams.net" modified="2023-06-20T21:02:15.392Z" agent="Mozilla/5.0 (Macintosh; Intel Mac OS X 10_15_7) AppleWebKit/537.36 (KHTML, like Gecko) Chrome/114.0.0.0 Safari/537.36" etag="EhT7D6qVqeTl5vrnTS8n" version="21.5.0" type="device">
  <diagram name="Page-1" id="bCUsrkpF4LKWjLJkwkil">
    <mxGraphModel dx="741" dy="445" grid="1" gridSize="10" guides="1" tooltips="1" connect="1" arrows="1" fold="1" page="1" pageScale="1" pageWidth="850" pageHeight="1100" math="0" shadow="0">
      <root>
        <mxCell id="0" />
        <mxCell id="1" parent="0" />
        <mxCell id="TQaRVGNJqdMiOCRxvS1c-7" style="edgeStyle=orthogonalEdgeStyle;rounded=0;orthogonalLoop=1;jettySize=auto;html=1;exitX=0.5;exitY=1;exitDx=0;exitDy=0;strokeWidth=1;entryX=0.5;entryY=0;entryDx=0;entryDy=0;" edge="1" parent="1" source="TQaRVGNJqdMiOCRxvS1c-1" target="TQaRVGNJqdMiOCRxvS1c-70">
          <mxGeometry relative="1" as="geometry">
            <mxPoint x="118.09500000000003" y="463" as="targetPoint" />
          </mxGeometry>
        </mxCell>
        <mxCell id="TQaRVGNJqdMiOCRxvS1c-10" style="edgeStyle=orthogonalEdgeStyle;rounded=0;orthogonalLoop=1;jettySize=auto;html=1;exitX=1;exitY=0.5;exitDx=0;exitDy=0;entryX=0;entryY=0.5;entryDx=0;entryDy=0;entryPerimeter=0;strokeWidth=1;" edge="1" parent="1" source="TQaRVGNJqdMiOCRxvS1c-1" target="TQaRVGNJqdMiOCRxvS1c-9">
          <mxGeometry relative="1" as="geometry" />
        </mxCell>
        <mxCell id="TQaRVGNJqdMiOCRxvS1c-1" value="&lt;font style=&quot;font-size: 12px;&quot;&gt;Producer / &lt;br&gt;Task API&lt;/font&gt;" style="whiteSpace=wrap;html=1;aspect=fixed;strokeWidth=2;" vertex="1" parent="1">
          <mxGeometry x="73.55" y="237.5" width="91" height="91" as="geometry" />
        </mxCell>
        <mxCell id="TQaRVGNJqdMiOCRxvS1c-2" value="" style="shape=image;imageAspect=0;aspect=fixed;verticalLabelPosition=bottom;verticalAlign=top;image=https://fastapi.tiangolo.com/img/logo-margin/logo-teal.png;" vertex="1" parent="1">
          <mxGeometry x="73.55" y="233" width="82.98" height="30" as="geometry" />
        </mxCell>
        <mxCell id="TQaRVGNJqdMiOCRxvS1c-8" value="Broker" style="shape=image;imageAspect=0;aspect=fixed;verticalLabelPosition=bottom;verticalAlign=top;image=https://upload.wikimedia.org/wikipedia/commons/thumb/7/71/RabbitMQ_logo.svg/2560px-RabbitMQ_logo.svg.png;" vertex="1" parent="1">
          <mxGeometry x="315.12" y="309" width="69.76" height="11" as="geometry" />
        </mxCell>
        <mxCell id="TQaRVGNJqdMiOCRxvS1c-9" value="" style="strokeWidth=2;html=1;shape=mxgraph.flowchart.direct_data;whiteSpace=wrap;fillColor=#f5f5f5;fontColor=#333333;strokeColor=#666666;" vertex="1" parent="1">
          <mxGeometry x="240" y="263" width="220" height="40" as="geometry" />
        </mxCell>
        <mxCell id="TQaRVGNJqdMiOCRxvS1c-12" value="&lt;p style=&quot;margin: 4px 0px 0px; text-align: center; font-size: 4px;&quot;&gt;&lt;b style=&quot;&quot;&gt;&lt;font style=&quot;font-size: 4px;&quot;&gt;Task&lt;/font&gt;&lt;/b&gt;&lt;/p&gt;&lt;hr style=&quot;font-size: 4px;&quot;&gt;&lt;p style=&quot;margin: 0px 0px 0px 8px; font-size: 4px;&quot;&gt;&lt;font style=&quot;font-size: 4px;&quot;&gt;field1 = value1&lt;br&gt;field2 = value2&lt;br&gt;field3 = value3&lt;/font&gt;&lt;/p&gt;" style="verticalAlign=top;align=left;overflow=fill;fontSize=12;fontFamily=Helvetica;html=1;whiteSpace=wrap;" vertex="1" parent="1">
          <mxGeometry x="269" y="268" width="40" height="30" as="geometry" />
        </mxCell>
        <mxCell id="TQaRVGNJqdMiOCRxvS1c-18" value="&lt;p style=&quot;margin: 4px 0px 0px; text-align: center; font-size: 4px;&quot;&gt;&lt;b style=&quot;&quot;&gt;&lt;font style=&quot;font-size: 4px;&quot;&gt;Task&lt;/font&gt;&lt;/b&gt;&lt;/p&gt;&lt;hr style=&quot;font-size: 4px;&quot;&gt;&lt;p style=&quot;margin: 0px 0px 0px 8px; font-size: 4px;&quot;&gt;&lt;font style=&quot;font-size: 4px;&quot;&gt;field1 = value1&lt;br&gt;field2 = value2&lt;br&gt;field3 = value3&lt;/font&gt;&lt;/p&gt;" style="verticalAlign=top;align=left;overflow=fill;fontSize=12;fontFamily=Helvetica;html=1;whiteSpace=wrap;" vertex="1" parent="1">
          <mxGeometry x="319" y="268" width="40" height="30" as="geometry" />
        </mxCell>
        <mxCell id="TQaRVGNJqdMiOCRxvS1c-21" value="" style="rounded=0;whiteSpace=wrap;html=1;dashed=1;strokeWidth=1;" vertex="1" parent="1">
          <mxGeometry x="543" y="170" width="130" height="270" as="geometry" />
        </mxCell>
        <mxCell id="TQaRVGNJqdMiOCRxvS1c-19" value="&lt;p style=&quot;margin: 4px 0px 0px; text-align: center; font-size: 4px;&quot;&gt;&lt;b style=&quot;&quot;&gt;&lt;font style=&quot;font-size: 4px;&quot;&gt;Task&lt;/font&gt;&lt;/b&gt;&lt;/p&gt;&lt;hr style=&quot;font-size: 4px;&quot;&gt;&lt;p style=&quot;margin: 0px 0px 0px 8px; font-size: 4px;&quot;&gt;&lt;font style=&quot;font-size: 4px;&quot;&gt;field1 = value1&lt;br&gt;field2 = value2&lt;br&gt;field3 = value3&lt;/font&gt;&lt;/p&gt;" style="verticalAlign=top;align=left;overflow=fill;fontSize=12;fontFamily=Helvetica;html=1;whiteSpace=wrap;" vertex="1" parent="1">
          <mxGeometry x="369" y="268" width="40" height="30" as="geometry" />
        </mxCell>
        <mxCell id="TQaRVGNJqdMiOCRxvS1c-24" value="Celery&lt;br&gt;Worker" style="whiteSpace=wrap;html=1;aspect=fixed;strokeWidth=2;" vertex="1" parent="1">
          <mxGeometry x="568" y="188" width="80" height="80" as="geometry" />
        </mxCell>
        <mxCell id="TQaRVGNJqdMiOCRxvS1c-53" style="edgeStyle=orthogonalEdgeStyle;rounded=0;orthogonalLoop=1;jettySize=auto;html=1;exitX=1;exitY=0.5;exitDx=0;exitDy=0;" edge="1" parent="1" source="TQaRVGNJqdMiOCRxvS1c-23">
          <mxGeometry relative="1" as="geometry">
            <mxPoint x="720" y="200.61904761904748" as="targetPoint" />
          </mxGeometry>
        </mxCell>
        <mxCell id="TQaRVGNJqdMiOCRxvS1c-59" style="edgeStyle=orthogonalEdgeStyle;rounded=0;orthogonalLoop=1;jettySize=auto;html=1;exitX=0;exitY=0.5;exitDx=0;exitDy=0;entryX=1;entryY=0.5;entryDx=0;entryDy=0;entryPerimeter=0;" edge="1" parent="1" source="TQaRVGNJqdMiOCRxvS1c-23" target="TQaRVGNJqdMiOCRxvS1c-9">
          <mxGeometry relative="1" as="geometry" />
        </mxCell>
        <mxCell id="TQaRVGNJqdMiOCRxvS1c-63" value="Fetch&lt;br&gt;Tasks" style="edgeLabel;html=1;align=center;verticalAlign=middle;resizable=0;points=[];" vertex="1" connectable="0" parent="TQaRVGNJqdMiOCRxvS1c-59">
          <mxGeometry x="0.0601" y="-3" relative="1" as="geometry">
            <mxPoint as="offset" />
          </mxGeometry>
        </mxCell>
        <mxCell id="TQaRVGNJqdMiOCRxvS1c-23" value="" style="shape=image;imageAspect=0;aspect=fixed;verticalLabelPosition=bottom;verticalAlign=top;image=https://upload.wikimedia.org/wikipedia/commons/1/19/Celery_logo.png;" vertex="1" parent="1">
          <mxGeometry x="553" y="180" width="42" height="42" as="geometry" />
        </mxCell>
        <mxCell id="TQaRVGNJqdMiOCRxvS1c-25" value="" style="shape=image;html=1;verticalAlign=top;verticalLabelPosition=bottom;labelBackgroundColor=#ffffff;imageAspect=0;aspect=fixed;image=https://cdn2.iconfinder.com/data/icons/boxicons-logos/24/bxl-docker-128.png" vertex="1" parent="1">
          <mxGeometry x="568" y="248" width="20" height="20" as="geometry" />
        </mxCell>
        <mxCell id="TQaRVGNJqdMiOCRxvS1c-33" value="Celery&lt;br&gt;Worker" style="whiteSpace=wrap;html=1;aspect=fixed;strokeWidth=2;" vertex="1" parent="1">
          <mxGeometry x="568" y="340" width="80" height="80" as="geometry" />
        </mxCell>
        <mxCell id="TQaRVGNJqdMiOCRxvS1c-52" style="edgeStyle=orthogonalEdgeStyle;rounded=0;orthogonalLoop=1;jettySize=auto;html=1;exitX=1;exitY=0.5;exitDx=0;exitDy=0;" edge="1" parent="1" source="TQaRVGNJqdMiOCRxvS1c-34">
          <mxGeometry relative="1" as="geometry">
            <mxPoint x="720" y="353" as="targetPoint" />
          </mxGeometry>
        </mxCell>
        <mxCell id="TQaRVGNJqdMiOCRxvS1c-60" style="edgeStyle=orthogonalEdgeStyle;rounded=0;orthogonalLoop=1;jettySize=auto;html=1;exitX=0;exitY=0.5;exitDx=0;exitDy=0;entryX=1;entryY=0.5;entryDx=0;entryDy=0;entryPerimeter=0;" edge="1" parent="1" source="TQaRVGNJqdMiOCRxvS1c-34" target="TQaRVGNJqdMiOCRxvS1c-9">
          <mxGeometry relative="1" as="geometry" />
        </mxCell>
        <mxCell id="TQaRVGNJqdMiOCRxvS1c-34" value="" style="shape=image;imageAspect=0;aspect=fixed;verticalLabelPosition=bottom;verticalAlign=top;image=https://upload.wikimedia.org/wikipedia/commons/1/19/Celery_logo.png;" vertex="1" parent="1">
          <mxGeometry x="553" y="332.5" width="42" height="42" as="geometry" />
        </mxCell>
        <mxCell id="TQaRVGNJqdMiOCRxvS1c-35" value="" style="shape=image;html=1;verticalAlign=top;verticalLabelPosition=bottom;labelBackgroundColor=#ffffff;imageAspect=0;aspect=fixed;image=https://cdn2.iconfinder.com/data/icons/boxicons-logos/24/bxl-docker-128.png" vertex="1" parent="1">
          <mxGeometry x="568" y="400" width="20" height="20" as="geometry" />
        </mxCell>
        <mxCell id="TQaRVGNJqdMiOCRxvS1c-56" value="" style="endArrow=classic;html=1;rounded=0;entryX=1;entryY=0.5;entryDx=0;entryDy=0;edgeStyle=orthogonalEdgeStyle;" edge="1" parent="1" target="TQaRVGNJqdMiOCRxvS1c-70">
          <mxGeometry width="50" height="50" relative="1" as="geometry">
            <mxPoint x="720" y="200" as="sourcePoint" />
            <mxPoint x="185.5300000000001" y="530.5" as="targetPoint" />
            <Array as="points">
              <mxPoint x="720" y="470" />
              <mxPoint x="152" y="470" />
            </Array>
          </mxGeometry>
        </mxCell>
        <mxCell id="TQaRVGNJqdMiOCRxvS1c-64" value="Results" style="edgeLabel;html=1;align=center;verticalAlign=middle;resizable=0;points=[];" vertex="1" connectable="0" parent="TQaRVGNJqdMiOCRxvS1c-56">
          <mxGeometry x="-0.8901" y="3" relative="1" as="geometry">
            <mxPoint as="offset" />
          </mxGeometry>
        </mxCell>
        <mxCell id="TQaRVGNJqdMiOCRxvS1c-70" value="Redis Backend" style="shape=image;imageAspect=0;aspect=fixed;verticalLabelPosition=bottom;verticalAlign=top;image=https://cdn.worldvectorlogo.com/logos/redis.svg;" vertex="1" parent="1">
          <mxGeometry x="85" y="441" width="66.31" height="57" as="geometry" />
        </mxCell>
        <mxCell id="TQaRVGNJqdMiOCRxvS1c-72" value="..." style="text;html=1;strokeColor=none;fillColor=none;align=center;verticalAlign=middle;whiteSpace=wrap;rounded=0;" vertex="1" parent="1">
          <mxGeometry x="578" y="290" width="60" height="30" as="geometry" />
        </mxCell>
      </root>
    </mxGraphModel>
  </diagram>
</mxfile>
